<?xml version="1.0" encoding="UTF-8"?> <svg xmlns="http://www.w3.org/2000/svg" width="17" height="20" viewBox="0 0 17 20" fill="none"> <g clip-path="url(#clip0_248_228)"> <rect x="0.394531" y="5.85947" width="16.097" height="13.0788" stroke="#353535"></rect> <path d="M11.9664 7.87201V8.37201H12.9664V7.87201H11.9664ZM3.91797 7.87201V8.37201H4.91797V7.87201H3.91797ZM11.9664 4.85383V7.87201H12.9664V4.85383H11.9664ZM4.91797 7.87201V4.85383H3.91797V7.87201H4.91797ZM8.44221 1.32959C10.3886 1.32959 11.9664 2.90744 11.9664 4.85383H12.9664C12.9664 2.35516 10.9409 0.32959 8.44221 0.32959V1.32959ZM8.44221 0.32959C5.94354 0.32959 3.91797 2.35516 3.91797 4.85383H4.91797C4.91797 2.90744 6.49582 1.32959 8.44221 1.32959V0.32959Z" fill="#353535"></path> </g> <defs> <clipPath id="clip0_248_228"> <rect width="17" height="20" fill="white"></rect> </clipPath> </defs> </svg> 