<?xml version="1.0" encoding="UTF-8"?> <svg xmlns="http://www.w3.org/2000/svg" width="19" height="15" viewBox="0 0 19 15" fill="none"> <path d="M15.3056 7.5C16.3963 7.57246 17.2583 7.9529 17.8917 8.64131C18.525 9.29348 18.8417 10.1449 18.8417 11.1957C18.8417 12.4275 18.4722 13.3696 17.7333 14.0217C16.9944 14.6739 16.15 15 15.2 15C15.0944 15 14.9889 15 14.8833 15C14.1444 15 13.5111 14.837 12.9833 14.5109C12.4907 14.1848 12.0685 13.7862 11.7167 13.3152C11.4 12.808 11.1713 12.2464 11.0306 11.6304C10.8898 10.9783 10.8194 10.3261 10.8194 9.67391C10.8194 8.69565 10.9954 7.69928 11.3472 6.68478C11.6991 5.67029 12.1741 4.72826 12.7722 3.8587C13.4056 2.9529 14.1093 2.17391 14.8833 1.52174C15.6926 0.833333 16.5546 0.326087 17.4694 0L19 2.17391C18.1204 2.78986 17.3463 3.56884 16.6778 4.51087C16.0093 5.41667 15.5519 6.41304 15.3056 7.5ZM4.48611 7.5C5.57685 7.57246 6.43889 7.9529 7.07222 8.64131C7.70556 9.29348 8.02222 10.1449 8.02222 11.1957C8.02222 12.4275 7.65278 13.3696 6.91389 14.0217C6.175 14.6739 5.31296 15 4.32778 15C4.22222 15 4.11667 15 4.01111 15C3.27222 15 2.63889 14.837 2.11111 14.5109C1.61852 14.1848 1.21389 13.7862 0.897222 13.3152C0.580556 12.808 0.351852 12.2464 0.211111 11.6304C0.0703704 10.9783 0 10.3261 0 9.67391C0 8.69565 0.175926 7.69928 0.527778 6.68478C0.87963 5.67029 1.35463 4.72826 1.95278 3.8587C2.58611 2.9529 3.28981 2.17391 4.06389 1.52174C4.87315 0.833333 5.73519 0.326087 6.65 0L8.18056 2.17391C7.30093 2.78986 6.52685 3.56884 5.85833 4.51087C5.18982 5.41667 4.73241 6.41304 4.48611 7.5Z" fill="#7B7B7B"></path> </svg> 