<?xml version="1.0" encoding="UTF-8"?> <svg xmlns="http://www.w3.org/2000/svg" width="43" height="14" viewBox="0 0 43 14" fill="none"> <path fill-rule="evenodd" clip-rule="evenodd" d="M11.9313 0.726563V0.732129C11.9262 0.732129 10.2993 0.726563 9.86544 2.40447C9.46766 3.94303 8.34698 8.19078 8.31589 8.30783H8.00598C8.00598 8.30783 6.85946 3.96533 6.45656 2.3989C6.02271 0.720983 4.39053 0.726563 4.39053 0.726563H0.671875V13.4921H4.39053V5.91081H4.54556H4.70045L6.86982 13.4921H9.45218L11.6214 5.91639H11.9313V13.4921H15.6501V0.726563H11.9313Z" fill="#9F9F9F"></path> <path fill-rule="evenodd" clip-rule="evenodd" d="M25.5138 0.725098C25.5138 0.725098 24.4241 0.83101 23.9127 2.06298L21.2787 8.30637H20.9688V0.725098H17.25V13.4906H20.7621C20.7621 13.4906 21.9036 13.3792 22.415 12.1528L24.9974 5.90936H25.3073V13.4906H29.0261V0.725098H25.5138Z" fill="#9F9F9F"></path> <path fill-rule="evenodd" clip-rule="evenodd" d="M30.6797 5.96533V12.9335H34.3985V8.86406H38.4275C40.1836 8.86406 41.6708 7.6544 42.223 5.96533H30.6797Z" fill="#9F9F9F"></path> <path fill-rule="evenodd" clip-rule="evenodd" d="M38.4252 0.725098H30.1562C30.5695 3.15556 32.2583 5.10663 34.4432 5.74212C34.9389 5.88705 35.4607 5.9651 35.9977 5.9651H42.3715C42.4279 5.67523 42.4542 5.37978 42.4542 5.07318C42.4542 2.67059 40.6508 0.725098 38.4252 0.725098Z" fill="url(#paint0_linear_267_72)"></path> <defs> <linearGradient id="paint0_linear_267_72" x1="30.1573" y1="3.34509" x2="42.4542" y2="3.34509" gradientUnits="userSpaceOnUse"> <stop offset="0.3" stop-color="#A6A6A6"></stop> <stop offset="1" stop-color="#787878"></stop> </linearGradient> </defs> </svg> 