<?xml version="1.0" encoding="UTF-8"?> <svg xmlns="http://www.w3.org/2000/svg" width="42" height="15" viewBox="0 0 42 15" fill="none"> <path fill-rule="evenodd" clip-rule="evenodd" d="M14.9023 14.111L16.9429 1.08887H20.2047L18.1643 14.111H14.9023Z" fill="#525252"></path> <path fill-rule="evenodd" clip-rule="evenodd" d="M29.9982 1.40861C29.3533 1.14732 28.3389 0.862305 27.0754 0.862305C23.8506 0.862305 21.5806 2.62935 21.5618 5.1597C21.5412 7.03143 23.1816 8.07525 24.4183 8.69734C25.6893 9.33511 26.1163 9.74307 26.1113 10.3134C26.1025 11.1854 25.0968 11.5849 24.159 11.5849C22.8532 11.5849 22.1594 11.3883 21.0866 10.9022L20.667 10.6949L20.2109 13.6096C20.9715 13.9723 22.3816 14.287 23.8449 14.3037C27.272 14.3037 29.499 12.5579 29.5251 9.85579C29.5368 8.37157 28.6677 7.24666 26.7854 6.31774C25.6455 5.71392 24.9459 5.314 24.9539 4.70281C24.9547 4.16168 25.5449 3.58225 26.8225 3.58225C27.8894 3.56453 28.6617 3.81806 29.2636 4.08263L29.5565 4.23147L29.9982 1.40861Z" fill="#525252"></path> <path fill-rule="evenodd" clip-rule="evenodd" d="M34.3392 9.495C34.6096 8.74642 35.6385 5.85513 35.6385 5.85513C35.6195 5.88962 35.9073 5.10096 36.072 4.61286L36.2923 5.73587C36.2923 5.73587 36.9181 8.84401 37.0471 9.495C36.5393 9.495 34.9761 9.495 34.3392 9.495ZM38.3638 1.10303H35.8426C35.0608 1.10303 34.4755 1.33338 34.133 2.18242L29.2891 14.116H32.715C32.715 14.116 33.274 12.5106 33.4009 12.1582C33.7745 12.1582 37.1034 12.1649 37.5792 12.1649C37.6761 12.6194 37.9763 14.116 37.9763 14.116H41.0031L38.3638 1.10303Z" fill="#525252"></path> <path fill-rule="evenodd" clip-rule="evenodd" d="M12.1662 1.09961L8.97361 9.9771L8.63164 8.17243C8.03679 6.09325 6.18482 3.83973 4.11328 2.71045L7.03405 14.0987L10.4861 14.0966L15.6227 1.09961H12.1662Z" fill="#525252"></path> <path fill-rule="evenodd" clip-rule="evenodd" d="M6.0102 1.09082H0.750291L0.707031 1.3607C4.79989 2.43928 7.50791 5.04282 8.63197 8.1725L7.48894 2.18943C7.29175 1.36425 6.71859 1.11972 6.0102 1.09082Z" fill="#666565"></path> </svg> 