<?xml version="1.0" encoding="UTF-8"?> <svg xmlns="http://www.w3.org/2000/svg" width="26" height="16" viewBox="0 0 26 16" fill="none"> <path d="M17.4736 15.5264C21.7263 15.5264 25.1738 12.0507 25.1738 7.76322C25.1738 3.47571 21.7263 0 17.4736 0C13.2209 0 9.77344 3.47571 9.77344 7.76322C9.77344 12.0507 13.2209 15.5264 17.4736 15.5264Z" fill="#979797"></path> <path d="M8.41503 15.5264C12.6677 15.5264 16.1152 12.0507 16.1152 7.76322C16.1152 3.47571 12.6677 0 8.41503 0C4.16233 0 0.714844 3.47571 0.714844 7.76322C0.714844 12.0507 4.16233 15.5264 8.41503 15.5264Z" fill="#737373"></path> <path fill-rule="evenodd" clip-rule="evenodd" d="M12.944 14.0417C14.8658 12.6303 16.1147 10.3437 16.1147 7.76309C16.1147 5.18247 14.8658 2.89594 12.944 1.48438C11.0224 2.89594 9.77344 5.18247 9.77344 7.76309C9.77344 10.3437 11.0224 12.6303 12.944 14.0417Z" fill="#7B7B7B"></path> </svg> 