<?xml version="1.0" encoding="UTF-8"?> <svg xmlns="http://www.w3.org/2000/svg" width="25" height="16" viewBox="0 0 25 16" fill="none"> <path d="M16.7588 15.5264C21.0115 15.5264 24.459 12.0507 24.459 7.76322C24.459 3.47571 21.0115 0 16.7588 0C12.5061 0 9.05859 3.47571 9.05859 7.76322C9.05859 12.0507 12.5061 15.5264 16.7588 15.5264Z" fill="#AFAFAF"></path> <path d="M7.70018 15.5264C11.9529 15.5264 15.4004 12.0507 15.4004 7.76322C15.4004 3.47571 11.9529 0 7.70018 0C3.44749 0 0 3.47571 0 7.76322C0 12.0507 3.44749 15.5264 7.70018 15.5264Z" fill="#737373"></path> <path fill-rule="evenodd" clip-rule="evenodd" d="M12.2293 14.0422C14.151 12.6308 15.4 10.3442 15.4 7.76358C15.4 5.18296 14.151 2.89643 12.2293 1.48486C10.3075 2.89643 9.05859 5.18296 9.05859 7.76358C9.05859 10.3442 10.3075 12.6308 12.2293 14.0422Z" fill="#919191"></path> </svg> 