<?xml version="1.0" standalone="no"?>
<!DOCTYPE svg PUBLIC "-//W3C//DTD SVG 20010904//EN"
"http://www.w3.org/TR/2001/REC-SVG-20010904/DTD/svg10.dtd">
<svg version="1.0" xmlns="http://www.w3.org/2000/svg"
width="512.000000pt" height="512.000000pt" viewBox="0 0 512.000000 512.000000"
preserveAspectRatio="xMidYMid meet">

<g transform="translate(0.000000,512.000000) scale(0.100000,-0.100000)"
fill="#000000" stroke="none">
<path d="M958 5091 l-33 -30 2 -288 c10 -1231 201 -2500 517 -3418 24 -71 55
-155 68 -185 23 -54 23 -61 28 -505 l5 -450 30 -54 c37 -66 108 -125 177 -146
77 -23 1539 -23 1616 0 69 21 140 80 177 146 l30 54 5 450 5 450 36 91 c21 50
62 169 94 265 292 900 469 2117 478 3302 l2 288 -33 30 -32 29 -1570 0 -1570
0 -32 -29z m3032 -276 l0 -105 -1430 0 -1430 0 0 105 0 105 1430 0 1430 0 0
-105z m-10 -342 c0 -143 -38 -674 -71 -988 -80 -771 -256 -1605 -451 -2141
l-42 -114 -856 0 -856 0 -37 101 c-188 511 -364 1330 -451 2109 -31 271 -76
885 -76 1033 l0 37 1420 0 1420 0 0 -37z m-600 -3820 c0 -347 -1 -370 -20
-400 -13 -21 -31 -35 -57 -42 -52 -15 -1434 -15 -1486 0 -26 7 -44 21 -57 42
-19 30 -20 53 -20 400 l0 367 820 0 820 0 0 -367z"/>
<path d="M2079 3451 l-29 -29 0 -452 0 -452 29 -29 29 -29 452 0 452 0 29 29
29 29 0 449 c0 409 -2 450 -18 469 -35 43 -42 44 -502 44 l-442 0 -29 -29z
m789 -483 l2 -308 -310 0 -310 0 0 303 c0 167 3 307 7 310 4 4 142 6 307 5
l301 -3 3 -307z"/>
</g>
</svg>
